<?xml version="1.0" encoding="iso-8859-1"?>
<!-- Generator: Adobe Illustrator 19.0.0, SVG Export Plug-In . SVG Version: 6.00 Build 0)  -->
<svg xmlns="http://www.w3.org/2000/svg" xmlns:xlink="http://www.w3.org/1999/xlink" version="1.1" id="Layer_1" x="0px" y="0px" viewBox="0 0 512 512" style="enable-background:new 0 0 512 512;" xml:space="preserve" width="512" height="512">
<g>
	<path d="M512,76H0v360h512V76z M482,406H30V106h452V406z"/>
	<path d="M181,181c0-24.813-20.187-45-45-45c-24.863,0-46,20.096-46,45c0,24.866,21.105,45,46,45C160.813,226,181,205.813,181,181z    M136,196c-8.523,0-16-7.009-16-15s7.477-15,16-15c8.271,0,15,6.729,15,15S144.271,196,136,196z"/>
	<rect x="60" y="346" width="151" height="30"/>
	<path d="M211,301c0-41.355-33.645-75-75-75c-41.458,0-76,33.534-76,75v15h151V301z M92.735,286c6.475-17.282,23.675-30,43.265-30   c19.556,0,36.239,12.539,42.43,30H92.735z"/>
	<rect x="241" y="136" width="91" height="30"/>
	<rect x="362" y="136" width="90" height="30"/>
	<rect x="241" y="226" width="151" height="30"/>
	<rect x="241" y="286" width="211" height="30"/>
	<rect x="241" y="346" width="211" height="30"/>
</g>















</svg>
